<svg xmlns="http://www.w3.org/2000/svg" width="29" height="28.279" viewBox="0 0 29 28.279"><g transform="translate(0)"><path d="M6.8,108.819a7.326,7.326,0,0,1,1.084-3.837v-4.767H2.992a13.868,13.868,0,0,0,0,17.208H7.88v-4.767A7.326,7.326,0,0,1,6.8,108.819Z" transform="translate(0 -94.68)" fill="#fbbd00"/><path d="M199.4,374.013l-3.4,3.314,3.4,3.314a14.629,14.629,0,0,0,8.824-2.918v-4.762h-4.883A7.852,7.852,0,0,1,199.4,374.013Z" transform="translate(-184.898 -352.362)" fill="#0f9d58"/><path d="M57.712,325.477l-4.889,4.767a14.563,14.563,0,0,0,11.508,5.535v-6.628A7.746,7.746,0,0,1,57.712,325.477Z" transform="translate(-49.831 -307.5)" fill="#31aa52"/><path d="M270.5,200.565a13.922,13.922,0,0,0-.237-2.561l-.128-.679H256v6.628h6.879a7.556,7.556,0,0,1-2.939,3.073l4.883,4.762a14.624,14.624,0,0,0,1.429-1.224A13.872,13.872,0,0,0,270.5,200.565Z" transform="translate(-241.5 -186.425)" fill="#3c79e6"/><path d="M204.845,8.828l.6.586,4.806-4.687-.6-.586A14.593,14.593,0,0,0,199.4,0L196,3.314l3.4,3.314A7.753,7.753,0,0,1,204.845,8.828Z" transform="translate(-184.898 0)" fill="#cf2d48"/><path d="M64.33,6.628V0A14.563,14.563,0,0,0,52.822,5.535L57.711,10.3a7.747,7.747,0,0,1,6.62-3.674Z" transform="translate(-49.83 0)" fill="#eb4132"/></g></svg>